PathFileType	4	(X/Y/Z)	Walk1.trc
DataRate	CameraRate	NumFrames	NumMarkers	Units	OrigDataRate	OrigDataStartFrame	OrigNumFrames
200.000000	200.000000	4	56	mm	200.000000	255	536
Frame#	Times		RBHD		C7		T10		CLAV		RBack		LASI		RASI		LPSI		RACR1		RUA1		RElbow		RFA1		RWRR		RWRU		RCAR		LACR1		LElbow		LElbowM		LFA1		LWRR		LWRU		RTH1		RTH3		RTH2		RTH4		RLFC		RTB1		RTB3		RTB2		RTB4		RMMAL		RMT1		RMT5		LTH3		LTH2		LTH4		LTB1		RPSI		LBHD		LLFC		LTB4		LTH1		LTB3		LFHD		RElbowM		LMT1		LCAL		LMT5		RLMAL		LLMAL		LTB2		LCAR		RToe		LToe		LUA1		RCAL
			X1	Y1	Z1	X2	Y2	Z2	X3	Y3	Z3	X4	Y4	Z4	X5	Y5	Z5	X6	Y6	Z6	X7	Y7	Z7	X8	Y8	Z8	X9	Y9	Z9	X10	Y10	Z10	X11	Y11	Z11	X12	Y12	Z12	X13	Y13	Z13	X14	Y14	Z14	X15	Y15	Z15	X16	Y16	Z16	X17	Y17	Z17	X18	Y18	Z18	X19	Y19	Z19	X20	Y20	Z20	X21	Y21	Z21	X22	Y22	Z22	X23	Y23	Z23	X24	Y24	Z24	X25	Y25	Z25	X26	Y26	Z26	X27	Y27	Z27	X28	Y28	Z28	X29	Y29	Z29	X30	Y30	Z30	X31	Y31	Z31	X32	Y32	Z32	X33	Y33	Z33	X34	Y34	Z34	X35	Y35	Z35	X36	Y36	Z36	X37	Y37	Z37	X38	Y38	Z38	X39	Y39	Z39	X40	Y40	Z40	X41	Y41	Z41	X42	Y42	Z42	X43	Y43	Z43	X44	Y44	Z44	X45	Y45	Z45	X46	Y46	Z46	X47	Y47	Z47	X48	Y48	Z48	X49	Y49	Z49	X50	Y50	Z50	X51	Y51	Z51	X52	Y52	Z52	X53	Y53	Z53	X54	Y54	Z54	X55	Y55	Z55	X56	Y56	Z56

255	1.275	-300.69	1558.2	414.91	-311.42	1441.7	337.7	-405.95	1133.4	314.72	-174.91	1363.9	315.87	-376.84	1346.9	431.02	-233.73	945.06	150.69	-203.24	949.25	452.19	-398.01	959.03	262.33	-236.62	1386.9	479.76	-283.94	1196.2	556.87	-338.5	1072.6	579.63	-305.75	929.21	603.08	-250.81	795.86	562.84	-321.69	797.74	597.02	-280.08	743.22	603.89	-270.86	1439.3	160.31	-336.2	1116.8	44.271	-363.63	1117.4	119.01	-231.96	992.85	19.339	-167.77	897.88	66.108	-233	874.87	22.662	-229.26	740.05	501.94	-183.41	559.72	465.02	-141.01	671.89	456.66	-205.18	648.71	487.84	-163.28	459.87	446.47	-138.67	370.13	358.48	-165.2	181.4	352.42	-154.18	272.84	429.86	-149.94	277.37	357.5	-209.46	97.821	306.86	-83.369	39.08	301.74	-105.02	32.4	393.19	-224.02	553.21	133.77	-168.72	654.31	153.38	-240.5	641.28	125.89	-254.93	343	203.93	-393.27	964.25	367.79	-295.25	1578	278.11	-226.84	444.8	145.89	-336.33	300.22	209.14	-256.08	737.85	125.05	-416.83	254.58	213.57	-118.85	1622.4	315.66	-363.6	1051.3	487.44	-499.83	92.092	258.73	-617.72	252.56	241.38	-520.87	106.55	180.12	-227.91	80.933	395.11	-558.33	243.32	191.17	-355.58	327.68	145.77	-155.44	844.76	19.935	-29.409	34.821	320.46	-467.74	69.116	235.23	-300.78	1246.3	60.241	-282.26	34.295	356.46
256	1.28	-294.87	1559.5	415.2	-305.91	1442.8	337.81	-400.46	1134.7	315.12	-169.43	1365.4	315.69	-371.22	1348	431.45	-227.26	946.75	151.31	-198.14	950.03	452.89	-392.47	960.39	262.61	-230.74	1388.5	479.8	-275.78	1197.4	556.88	-329.6	1073.6	580.67	-294.77	930.12	603.72	-239.08	797.61	563.22	-309.68	798.85	597.59	-267.31	744.76	604.49	-266.12	1440.5	160.28	-332.7	1118.2	44.658	-360.21	1118.7	119.39	-228.88	993.9	19.544	-164.87	898.85	66.225	-230.21	875.98	22.574	-225.49	740.69	502.13	-181.29	559.82	465.5	-138.04	671.55	456.95	-202.07	649.13	487.61	-162.15	459.86	446.86	-138.1	370.11	358.88	-165.09	181.41	352.75	-153.62	272.84	430.12	-149.45	277.39	357.83	-209.43	97.898	307.03	-83.373	39.137	301.85	-105.03	32.368	393.31	-214.12	555.21	133.52	-160.29	657.2	152.93	-231.71	643.19	125.63	-242.68	344.82	203.37	-388.1	965.58	367.81	-289.62	1579.4	278.35	-215.11	447.34	145.57	-322.83	302.06	208.46	-248.93	739.51	124.96	-403.72	255.61	213.15	-112.95	1623.5	315.64	-355.56	1051.9	488.88	-484.58	92.946	257.92	-604.47	251.94	241.39	-505.68	107.58	179.59	-227.88	80.782	395.09	-544.85	243.39	191.16	-342.85	329.59	145.33	-152.58	845.4	20.213	-29.386	34.746	320.59	-452.42	70.55	234.58	-297.3	1247.6	60.169	-282.36	34.287	356.54
257	1.285	-289.01	1561.1	415.44	-300.53	1444.1	337.81	-394.66	1135.8	315.49	-164.18	1366.4	315.49	-365.28	1349.2	432.15	-220.99	948.54	151.78	-193.08	950.9	453.54	-387.39	961.69	262.44	-224.85	1389.9	479.6	-267.81	1198.7	557.21	-320.96	1074.5	581.77	-283.81	931.6	604.17	-227.47	799.29	563.64	-297.7	799.95	598.52	-254.85	746.19	605.26	-261.65	1441.6	160.21	-329.36	1119.3	45.142	-356.7	1120	119.86	-225.72	994.95	19.594	-161.95	899.74	66.423	-227.35	876.98	22.403	-220.74	741.45	502.24	-179.58	560.11	466.02	-135.3	671.32	457.21	-199.53	649.35	487.9	-161.47	459.82	447.38	-136.88	370.09	359.16	-164.87	181.36	352.98	-153.2	272.8	430.46	-148.96	277.49	358.08	-209.4	98.002	307.17	-83.409	39.166	301.88	-105.02	32.287	393.44	-204.02	557.32	133.15	-151.76	660.06	152.44	-223.12	645	125.46	-229.39	346.92	202.48	-382.44	967	367.82	-283.91	1580.7	278.56	-203.42	449.68	145.26	-309.58	303.36	208.06	-241.66	741.02	124.83	-389.94	256.55	213.03	-107.14	1624.3	315.48	-347.78	1052.4	490.24	-468.99	93.425	257.46	-591.18	250.93	241.57	-490.07	108.22	179.16	-227.9	80.738	395.11	-531.28	243.4	191.03	-330.33	331.3	145.08	-149.74	846.27	20.388	-29.393	34.665	320.69	-436.47	71.815	233.87	-294.19	1248.7	60.197	-282.44	34.311	356.67
258	1.29	-282.96	1562.3	415.57	-294.94	1445.2	338.22	-389.31	1136.9	315.97	-158.71	1367.7	315.19	-359.23	1350.1	432.57	-215.22	949.82	152.33	-188.22	951.77	454.08	-382.1	963.17	262.49	-218.3	1390.8	478.8	-259.73	1199.9	557.22	-312.04	1075.4	583.02	-273.4	932.9	604.81	-215.64	801.28	563.79	-285.67	801.28	599.67	-241.96	747.97	605.61	-257.18	1442.6	160.18	-326.4	1120.3	45.339	-353.02	1120.8	120.4	-222.86	996	19.628	-159.28	900.76	66.488	-224.42	878.13	22.499	-217.18	742.09	502.58	-177.69	560.13	466.41	-132.39	670.97	457.71	-196.94	649.74	488.63	-160.78	459.69	447.82	-136.04	369.99	359.45	-164.68	181.31	353.06	-152.88	272.74	430.87	-148.47	277.58	358.45	-209.32	98.046	307.32	-83.432	39.242	302.04	-105.01	32.263	393.57	-194	559.4	132.7	-143.05	662.84	151.96	-214.34	646.87	125.09	-215.51	349.2	201.42	-376.94	968.38	367.78	-278.11	1582.1	278.93	-191.76	452.08	145.07	-296.4	304.51	207.78	-234.42	742.51	124.79	-375.91	257.39	212.49	-101.35	1625.2	315.2	-339.85	1053.3	491.48	-453.29	93.824	257.09	-577.72	249.46	241.59	-474.19	108.49	178.83	-227.94	80.81	395.28	-517.5	242.86	191.18	-317.77	332.96	144.94	-147.17	847.12	20.539	-29.368	34.578	320.79	-419.91	73.138	233.47	-290.76	1249.9	60.426	-282.47	34.37	356.76
